# xmcd
#
# Track frame offsets:
#	150
#	8845
#	32551
#	55496
#	60067
#	82953
#	109466
#	137907
#	158348
#	175386
#	189065
#	207495
#	226213
#
# Disc length: 3424 seconds
#
# Revision: 1
# Processed by: cddbd v1.5.1PL2 Copyright (c) Steve Scherf et al.
# Submitted via: EasyCDDAExtractor 9.0.0.1
#
DISCID=9d0d5e0d
DTITLE=Deep Purple - Stadthalle Osnabrcuk 13-06-06 Disc 1
DYEAR=2006
DGENRE=Hard Rock
TTITLE0=Intro
TTITLE1=Pictures Of Home
TTITLE2=Things I Never Said
TTITLE3=Bavarian Sarabande
TTITLE4=Hush
TTITLE5=Rapture Of The Deep
TTITLE6=Strange Kind Of Woman
TTITLE7=Wrong Man
TTITLE8=Steve Morse Solo
TTITLE9=The Well Dressed Guitar
TTITLE10=Fireball
TTITLE11=When A Blind Man Cries
TTITLE12=Lazy
EXTD=
EXTT0=
EXTT1=
EXTT2=
EXTT3=
EXTT4=
EXTT5=
EXTT6=
EXTT7=
EXTT8=
EXTT9=
EXTT10=
EXTT11=
EXTT12=
PLAYORDER=
